<?xml version="1.0" encoding="utf-8"?>
<!-- Generator: Adobe Illustrator 24.1.2, SVG Export Plug-In . SVG Version: 6.00 Build 0)  -->
<svg version="1.1" id="Layer_1" xmlns="http://www.w3.org/2000/svg" xmlns:xlink="http://www.w3.org/1999/xlink" x="0px" y="0px"
	 viewBox="0 0 80 84" style="enable-background:new 0 0 80 84;" xml:space="preserve">
<style type="text/css">
	.st0{opacity:0.32;}
	.st1{fill:url(#SVGID_1_);}
	.st2{fill:url(#SVGID_2_);}
	.st3{fill:url(#SVGID_3_);}
	.st4{fill:#FFFFFF;}
</style>
<g class="st0">
	<linearGradient id="SVGID_1_" gradientUnits="userSpaceOnUse" x1="0" y1="42" x2="80" y2="42">
		<stop  offset="0" style="stop-color:#ABB5FF"/>
		<stop  offset="1" style="stop-color:#7986EC"/>
	</linearGradient>
	<ellipse class="st1" cx="40" cy="42" rx="40" ry="42"/>
	<linearGradient id="SVGID_2_" gradientUnits="userSpaceOnUse" x1="0" y1="42" x2="80" y2="42">
		<stop  offset="0" style="stop-color:#ABB5FF"/>
		<stop  offset="1" style="stop-color:#7986EC"/>
	</linearGradient>
	<ellipse class="st2" cx="40" cy="42" rx="40" ry="42"/>
</g>
<linearGradient id="SVGID_3_" gradientUnits="userSpaceOnUse" x1="40" y1="82.8" x2="40" y2="25.2" gradientTransform="matrix(1 0 0 -1 0 96)">
	<stop  offset="0" style="stop-color:#ABB5FF"/>
	<stop  offset="1" style="stop-color:#7986EC"/>
</linearGradient>
<circle class="st3" cx="40" cy="42" r="28.8"/>
<path class="st4" d="M46.9,39.9L38,33.8c-0.4-0.3-0.8-0.4-1.2-0.4c-0.7,0-1.1,0.5-1.1,1.4V48c0,0.9,0.4,1.4,1.1,1.4
	c0.3,0,0.8-0.1,1.2-0.4l8.9-6.1c0.6-0.4,0.9-0.9,0.9-1.5C47.8,40.8,47.5,40.3,46.9,39.9z"/>
</svg>
